<?xml version="1.0" standalone="no"?>
<!DOCTYPE svg PUBLIC "-//W3C//DTD SVG 20010904//EN"
 "http://www.w3.org/TR/2001/REC-SVG-20010904/DTD/svg10.dtd">
<svg version="1.0" xmlns="http://www.w3.org/2000/svg"
 width="512.000000pt" height="512.000000pt" viewBox="0 0 512.000000 512.000000"
 preserveAspectRatio="xMidYMid meet">

<g transform="translate(0.000000,512.000000) scale(0.100000,-0.100000)"
fill="#000000" stroke="none">
<path d="M2385 4897 c-18 -14 -12 -42 13 -52 20 -8 45 17 37 37 -9 23 -30 29
-50 15z"/>
<path d="M2848 4883 c-30 -34 -31 -61 -4 -88 45 -44 106 -21 106 40 0 56 -68
87 -102 48z"/>
<path d="M1175 4783 c-25 -32 -62 -84 -83 -115 -20 -31 -42 -57 -49 -58 -6 0
-67 22 -134 50 -84 34 -125 46 -130 38 -6 -9 59 -159 76 -176 3 -3 5 -13 5
-23 0 -20 -26 -29 -164 -58 -44 -9 -81 -21 -83 -27 -2 -5 23 -20 54 -33 132
-52 167 -68 170 -78 2 -6 -32 -49 -77 -96 -44 -46 -80 -90 -80 -96 0 -19 32
-13 149 29 62 22 117 38 122 35 5 -4 9 -53 9 -111 0 -81 3 -104 14 -104 7 0
46 50 86 110 40 61 77 110 83 110 13 0 70 -43 129 -98 28 -26 54 -42 62 -39
16 6 13 22 -25 149 -12 43 -20 80 -17 83 3 3 58 8 122 12 97 5 116 9 114 21
-2 9 -46 46 -98 84 -52 38 -95 72 -95 77 0 4 31 34 70 67 46 39 64 60 53 62
-9 2 -55 -4 -104 -12 -120 -21 -118 -24 -109 131 8 147 0 155 -70 66z m26
-209 c34 -17 77 -68 85 -100 43 -170 -188 -328 -340 -235 -116 72 -91 261 42
323 87 40 152 43 213 12z"/>
<path d="M1190 4450 c-8 -5 -28 -10 -43 -10 -36 0 -31 -24 6 -28 32 -4 67 14
67 33 0 17 -9 19 -30 5z"/>
<path d="M1073 4427 c-19 -42 -16 -57 12 -57 26 0 32 9 16 26 -5 5 -11 20 -13
34 l-3 24 -12 -27z"/>
<path d="M1010 4421 c-8 -6 -27 -7 -43 -4 -41 8 -31 -19 11 -31 26 -7 36 -5
52 9 28 26 13 46 -20 26z"/>
<path d="M1140 4364 c-22 -24 -29 -26 -82 -21 -67 6 -75 -4 -19 -26 49 -20
101 -8 131 30 37 48 13 62 -30 17z"/>
<path d="M2567 4713 c-22 -21 0 -63 33 -63 18 0 32 40 19 56 -12 15 -41 19
-52 7z"/>
<path d="M3127 4623 c-13 -12 -7 -41 10 -47 9 -4 23 0 31 8 13 12 13 18 2 30
-13 17 -32 21 -43 9z"/>
<path d="M2790 4591 c0 -13 26 -32 33 -24 14 13 6 33 -13 33 -11 0 -20 -4 -20
-9z"/>
<path d="M2956 4515 c-8 -22 4 -45 24 -45 23 0 42 24 34 44 -8 20 -50 21 -58
1z"/>
<path d="M2590 4495 c0 -8 7 -15 15 -15 8 0 15 7 15 15 0 8 -7 15 -15 15 -8 0
-15 -7 -15 -15z"/>
<path d="M3282 4488 c2 -15 10 -23 23 -23 30 0 27 39 -3 43 -20 3 -23 0 -20
-20z"/>
<path d="M2362 4488 c-17 -17 -15 -64 4 -82 8 -9 26 -16 40 -16 27 0 64 32 64
55 0 41 -79 72 -108 43z m66 -45 c2 -8 -6 -13 -22 -13 -25 0 -33 10 -19 24 10
10 36 3 41 -11z"/>
<path d="M1726 4413 c-12 -12 -6 -33 9 -33 8 0 15 6 15 14 0 17 -14 28 -24 19z"/>
<path d="M2789 4391 c-30 -31 -36 -46 -20 -56 6 -3 15 5 22 17 6 13 21 33 32
46 31 33 1 27 -34 -7z"/>
<path d="M3165 4387 c-58 -49 -20 -147 56 -147 39 0 89 48 89 85 0 37 -50 85
-89 85 -17 0 -41 -10 -56 -23z"/>
<path d="M2600 4350 c-15 -28 4 -60 34 -60 20 0 36 16 36 35 0 7 -44 45 -52
45 -4 0 -12 -9 -18 -20z m40 -30 c0 -5 -4 -10 -10 -10 -5 0 -10 5 -10 10 0 6
5 10 10 10 6 0 10 -4 10 -10z"/>
<path d="M1900 4352 c0 -19 19 -52 30 -52 16 0 12 16 -10 41 -11 14 -19 18
-20 11z"/>
<path d="M1816 4338 c19 -33 49 -68 56 -68 18 0 6 40 -18 59 -30 23 -49 28
-38 9z"/>
<path d="M2310 4306 c0 -14 5 -26 10 -26 6 0 10 7 10 15 0 8 0 18 1 22 0 4 -4
9 -10 11 -6 2 -11 -8 -11 -22z"/>
<path d="M2462 4303 c4 -21 33 -25 33 -3 0 8 -8 16 -18 18 -14 3 -18 -1 -15
-15z"/>
<path d="M2833 4290 c-26 -10 -31 -30 -9 -30 24 0 66 19 66 30 0 12 -27 12
-57 0z"/>
<path d="M1730 4262 c0 -12 24 -22 52 -22 11 0 18 5 16 13 -5 14 -68 23 -68 9z"/>
<path d="M2710 4226 c0 -18 17 -29 30 -21 8 5 7 11 -1 21 -15 18 -29 18 -29 0z"/>
<path d="M3010 4225 c0 -8 5 -15 10 -15 6 0 10 7 10 15 0 8 -4 15 -10 15 -5 0
-10 -7 -10 -15z"/>
<path d="M2830 4191 c0 -10 34 -21 68 -21 25 0 30 15 6 24 -24 9 -74 7 -74 -3z"/>
<path d="M1800 4179 c-41 -17 -80 -60 -91 -102 -11 -42 0 -93 31 -136 15 -22
15 -30 -7 -145 -34 -175 -48 -279 -93 -676 -22 -195 -44 -358 -48 -362 -10
-10 -206 57 -268 93 -80 45 -151 125 -238 264 l-79 127 -1 140 -1 140 -35 31
c-19 17 -51 56 -70 87 -76 116 -145 175 -177 148 -21 -17 -12 -101 16 -156
l20 -40 -22 -15 c-12 -8 -33 -17 -45 -22 -13 -4 -28 -20 -34 -36 -6 -18 -17
-29 -29 -29 -57 0 -89 -41 -89 -117 0 -95 85 -204 229 -293 54 -34 86 -63 125
-115 162 -216 361 -345 590 -382 50 -8 92 -16 94 -17 4 -5 -26 -235 -40 -310
-10 -51 -19 -67 -71 -122 -83 -90 -81 -133 6 -134 32 0 37 -3 33 -17 -3 -10
-8 -51 -12 -92 -6 -70 -8 -74 -38 -86 -65 -28 -107 -99 -114 -197 -4 -58 -1
-72 21 -110 14 -24 38 -53 54 -64 36 -26 143 -65 243 -88 41 -10 81 -20 89
-22 9 -3 -8 -27 -51 -72 -61 -63 -119 -144 -179 -251 -29 -53 -56 -62 -51 -17
3 24 0 28 -17 23 -25 -6 -45 16 -38 43 6 24 -12 38 -23 19 -7 -10 -11 -10 -24
0 -9 8 -16 21 -16 31 0 23 -11 32 -24 21 -8 -7 -23 -3 -44 11 -30 19 -32 23
-32 81 0 119 -65 192 -183 204 -108 11 -232 -39 -277 -112 -30 -49 -42 -132
-26 -192 31 -114 135 -283 282 -458 107 -127 155 -173 237 -226 93 -61 150
-68 185 -26 7 8 30 66 51 128 70 208 138 326 355 606 l117 153 184 0 c183 0
185 0 189 -22 32 -166 50 -209 93 -226 65 -26 134 -34 283 -30 l155 3 0 -25
c0 -17 -9 -29 -30 -40 l-30 -15 28 -3 c32 -4 36 -18 7 -27 -23 -7 -27 -25 -5
-25 9 0 15 -9 16 -22 l0 -23 16 22 c8 13 23 23 33 23 28 0 32 13 8 32 l-23 18
23 0 c13 0 22 6 22 15 0 8 -6 15 -14 15 -27 0 -27 19 -2 62 40 69 43 136 9
224 -4 11 10 14 80 14 l86 0 6 -43 c6 -39 -8 -350 -24 -515 -6 -66 -10 -77
-38 -102 -45 -41 -126 -67 -295 -96 -124 -21 -152 -23 -159 -12 -12 19 -11
116 2 163 20 72 106 135 184 135 11 0 37 -9 58 -20 46 -25 70 -26 65 -2 -4 25
-85 62 -134 62 -28 0 -64 -11 -106 -32 -53 -28 -67 -41 -88 -83 -21 -43 -25
-64 -25 -142 0 -91 -1 -93 -23 -93 -33 0 -62 -18 -56 -34 10 -26 87 -28 226
-6 228 36 342 76 402 139 27 28 30 40 42 153 7 68 13 206 14 308 0 157 -3 190
-18 220 l-17 35 -70 -2 c-92 -3 -157 -22 -170 -51 -9 -20 -17 -22 -87 -22 -42
0 -99 5 -126 11 -51 10 -98 47 -90 70 2 7 53 23 113 36 119 27 252 72 302 103
54 32 67 63 71 164 3 83 1 95 -22 139 -15 27 -24 52 -21 56 2 5 26 11 52 15
67 9 165 58 244 121 50 41 70 51 77 42 19 -23 92 -180 98 -211 3 -21 -6 -66
-30 -141 -20 -61 -36 -118 -36 -129 0 -10 17 -50 37 -88 43 -83 83 -110 134
-91 16 6 44 9 62 6 24 -3 42 2 70 21 21 14 48 26 61 26 13 0 31 9 41 20 10 11
26 20 36 20 32 0 59 48 59 104 0 95 -74 208 -180 276 -43 28 -50 38 -75 108
-15 42 -52 125 -82 184 l-55 107 20 28 c96 136 167 383 179 623 8 179 -45 543
-98 667 -26 61 -83 119 -137 140 -52 20 -131 22 -264 10 l-88 -9 0 44 c0 38 5
48 41 81 56 52 73 94 56 144 -17 54 -50 67 -133 54 l-66 -10 -71 59 c-40 32
-85 63 -100 69 -36 14 -167 14 -203 1 -23 -9 -31 -7 -53 14 -58 55 -152 71
-240 39 -47 -16 -47 -16 -89 12 -40 26 -44 27 -84 15 -24 -8 -67 -13 -97 -12
-31 1 -68 -5 -87 -14 -31 -15 -34 -14 -73 12 -46 30 -120 41 -161 23z m146
-74 c61 -31 65 -31 94 0 25 27 77 34 97 14 8 -8 17 -8 31 0 38 20 81 13 114
-19 37 -37 93 -41 145 -9 48 30 126 23 176 -15 20 -16 37 -35 37 -43 0 -12 7
-14 33 -8 71 15 131 16 174 5 48 -14 144 -72 207 -126 38 -32 66 -43 66 -26 0
4 -5 13 -12 20 -20 20 3 32 46 22 34 -7 55 -23 56 -40 0 -24 -50 -75 -108
-109 -70 -41 -107 -83 -137 -155 -16 -37 -17 -37 -35 -21 -19 17 -20 17 -26 0
-4 -9 1 -42 10 -72 11 -34 15 -68 11 -89 -7 -41 -66 -107 -88 -98 -23 8 -34
-20 -42 -111 -7 -80 -35 -165 -54 -165 -6 0 -8 19 -4 51 5 46 4 51 -13 48 -13
-3 -24 -21 -36 -59 -9 -30 -28 -93 -42 -140 -47 -155 -88 -189 -125 -105 -25
56 -41 58 -41 5 0 -49 22 -96 49 -105 71 -22 138 61 182 225 13 52 21 65 36
65 49 0 89 74 99 182 6 66 8 70 42 89 58 32 75 63 82 156 7 87 17 122 51 169
19 27 105 86 114 78 2 -2 -5 -94 -15 -204 -11 -110 -29 -342 -40 -515 -11
-173 -23 -321 -25 -327 -3 -9 -12 -8 -34 5 -16 9 -33 13 -37 9 -4 -4 -5 -8 -3
-10 2 -2 50 -33 105 -70 56 -37 135 -99 175 -139 77 -77 214 -255 270 -353 37
-63 99 -203 119 -270 16 -50 27 -63 107 -122 68 -50 117 -114 134 -176 14 -52
8 -102 -11 -102 -9 0 -29 -10 -44 -23 -19 -15 -36 -20 -52 -16 -15 4 -36 -2
-60 -16 -30 -19 -38 -20 -45 -9 -7 12 -16 10 -49 -9 -52 -29 -71 -23 -108 36
-55 85 -56 92 -37 174 21 87 25 94 36 77 8 -12 11 -11 19 1 15 23 12 48 -15
155 -51 201 -141 321 -457 607 -147 134 -178 192 -144 273 12 27 12 34 1 39
-36 14 -79 -89 -63 -152 9 -32 76 -108 147 -166 l34 -27 -6 -76 c-5 -72 -8
-78 -47 -118 -98 -100 -107 -260 -18 -352 25 -26 29 -36 23 -63 -5 -21 -2 -37
8 -48 24 -28 37 -82 37 -153 l0 -67 -62 -35 c-35 -19 -100 -46 -145 -61 -77
-24 -85 -24 -123 -11 -86 30 -158 76 -169 106 -5 16 -15 29 -22 29 -8 0 -10
-25 -7 -88 6 -126 48 -208 133 -257 14 -9 16 -16 7 -50 -5 -22 -13 -53 -16
-68 -7 -28 -7 -28 -64 -22 -81 10 -116 29 -136 73 -21 48 -43 148 -52 237 -4
39 -10 79 -14 90 -7 19 -8 18 -15 -6 -3 -14 -5 -43 -3 -65 l3 -39 -195 -3
c-138 -2 -226 2 -303 13 -179 26 -370 90 -416 139 -48 51 -32 193 29 251 29
28 32 28 63 16 160 -66 229 -82 475 -111 400 -48 761 -32 831 36 27 26 1 27
-92 6 -50 -11 -144 -24 -207 -28 -219 -12 -695 30 -868 77 -108 30 -132 44
-132 77 0 15 18 173 40 352 22 179 50 413 61 520 22 216 76 684 85 743 5 34 9
38 28 32 66 -19 326 -67 421 -76 60 -6 115 -13 121 -14 6 -2 13 -23 16 -48 7
-63 56 -129 115 -158 27 -12 49 -23 51 -24 1 -1 -2 -15 -8 -30 -21 -55 52
-256 79 -216 10 16 -1 69 -29 141 -26 65 -25 94 2 112 32 21 17 46 -38 59 -28
7 -59 25 -78 44 -40 39 -65 118 -48 146 10 15 7 26 -17 61 -33 50 -61 112 -61
139 0 16 6 17 50 12 32 -4 55 -2 64 6 18 15 10 41 -13 41 -85 0 -200 93 -252
205 -32 68 -44 82 -54 65 -13 -22 -229 -2 -271 25 -28 18 -48 68 -40 101 19
73 94 94 182 49z m-65 -216 l51 -11 -5 -42 c-14 -103 -20 -256 -9 -256 14 0
33 94 41 202 3 48 8 89 11 91 3 3 28 3 57 0 48 -5 52 -7 57 -37 9 -47 57 -117
110 -162 45 -37 46 -39 46 -97 0 -32 7 -71 15 -87 10 -19 11 -31 5 -35 -23
-14 -298 12 -442 42 -75 15 -78 17 -78 44 0 27 36 293 45 337 6 25 21 27 96
11z m-1093 -166 c57 -73 95 -144 84 -155 -8 -8 -18 -6 -36 6 -14 9 -32 16 -40
16 -22 0 -47 54 -53 116 -7 65 4 69 45 17z m2675 -98 c132 -34 169 -106 219
-419 31 -195 31 -407 0 -568 -24 -128 -63 -262 -86 -293 -13 -18 -15 -18 -59
15 l-44 35 19 55 c63 179 80 269 85 452 8 258 -17 419 -83 551 -36 71 -106
106 -181 92 -47 -9 -116 -74 -142 -135 -36 -84 -45 -65 -37 77 4 70 9 129 11
132 7 6 116 18 180 20 34 0 87 -6 118 -14z m-2653 -75 c16 -8 17 -14 7 -40
-14 -37 -18 -37 -40 0 -26 43 -9 63 33 40z m136 -41 c16 -18 19 -38 19 -152
l0 -132 75 -130 c127 -218 234 -305 460 -369 l85 -24 0 -43 0 -44 -40 3 c-124
11 -301 82 -411 165 -84 64 -196 184 -255 275 -36 55 -56 76 -72 76 -83 4
-237 166 -237 249 0 27 35 77 53 77 15 -1 72 -77 82 -108 9 -31 -11 -53 -41
-46 -29 7 -32 -11 -4 -26 29 -16 67 -2 80 29 7 17 22 31 43 37 28 8 32 14 35
47 3 37 3 37 45 35 33 -2 42 1 45 15 2 11 -3 17 -15 17 -36 0 -45 21 -21 47
27 29 49 29 74 2z m-176 -46 c32 -51 37 -82 18 -101 -20 -20 -37 -14 -54 21
-9 17 -26 42 -37 54 -17 19 -19 27 -9 48 18 40 48 32 82 -22z m2670 10 c67
-61 110 -257 110 -509 0 -164 -15 -271 -57 -419 -23 -79 -57 -173 -68 -183 -2
-2 -36 30 -76 72 -39 42 -110 104 -157 139 l-84 62 7 125 c3 69 12 221 19 339
13 211 14 215 39 233 14 10 37 38 51 62 61 105 151 137 216 79z m-255 -1213
c24 -24 41 -48 39 -52 -2 -4 -36 -10 -74 -14 -102 -10 -88 -27 19 -23 101 4
105 2 168 -84 l36 -48 -34 -35 c-69 -72 -237 -164 -299 -164 -35 0 -73 65 -78
131 -6 76 15 132 74 201 39 45 44 58 44 99 0 26 3 55 6 64 7 18 19 9 99 -75z
m-1669 -185 c-6 -31 -11 -35 -36 -35 -17 0 -30 3 -30 7 0 10 63 73 68 68 2 -2
1 -20 -2 -40z m-389 -714 c60 -28 74 -56 80 -158 6 -114 9 -124 31 -96 l17 22
28 -23 c24 -20 27 -26 18 -49 -13 -33 2 -45 22 -17 12 17 16 18 26 6 7 -8 9
-25 5 -43 -7 -28 -7 -28 13 -10 20 18 21 18 37 -4 10 -16 12 -27 6 -40 -14
-26 -12 -31 10 -24 16 5 24 -4 51 -60 17 -36 44 -75 59 -87 28 -20 29 -22 14
-51 -13 -24 -44 -103 -70 -177 -3 -9 -21 18 -44 68 -47 99 -109 196 -201 312
-131 166 -314 320 -380 320 -15 0 -31 5 -35 11 -10 17 65 87 110 103 59 21
153 19 203 -3z m702 -120 c17 -21 31 -43 31 -47 0 -5 -16 -29 -36 -54 -20 -25
-45 -56 -55 -69 -17 -21 -21 -22 -49 -11 -17 7 -42 22 -56 32 l-25 20 37 47
c48 60 106 121 115 121 4 0 21 -18 38 -39z m878 -93 c-3 -8 -6 -5 -6 6 -1 11
2 17 5 13 3 -3 4 -12 1 -19z m202 0 c4 -12 5 -35 1 -52 l-6 -31 -92 -3 c-83
-2 -111 5 -83 22 4 3 11 24 15 46 l6 40 75 0 c69 0 76 -2 84 -22z m-212 -55
c-2 -20 -8 -38 -15 -41 -7 -2 -12 0 -12 4 0 9 23 74 26 74 2 0 2 -17 1 -37z
m-1076 -26 c-10 -9 -11 -8 -5 6 3 10 9 15 12 12 3 -3 0 -11 -7 -18z m89 -52
c0 -2 -18 6 -40 16 -23 11 -38 24 -35 29 5 8 75 -35 75 -45z m-78 -20 c16 -14
26 -25 21 -25 -5 0 -24 11 -43 25 -19 14 -28 25 -21 25 7 0 26 -11 43 -25z
m-38 -46 c15 -13 22 -28 19 -38 -4 -13 -3 -14 6 -1 22 31 22 -1 0 -42 -38 -70
-38 -70 -70 -47 -41 29 -52 52 -37 83 6 14 14 26 18 26 4 0 10 9 13 20 7 26
21 25 51 -1z"/>
<path d="M3001 3484 c-13 -49 -41 -236 -40 -266 2 -44 19 32 38 167 20 134 20
166 2 99z"/>
<path d="M1823 3336 c-61 -86 -67 -130 -16 -124 14 2 28 8 30 15 3 7 -3 10
-15 6 -34 -8 -35 16 -2 67 35 55 38 85 3 36z"/>
<path d="M1925 3310 c-3 -5 1 -10 9 -10 9 0 16 5 16 10 0 6 -4 10 -9 10 -6 0
-13 -4 -16 -10z"/>
<path d="M1886 3170 c-31 -38 -52 -106 -62 -201 -5 -52 -11 -72 -23 -76 -109
-33 -157 -120 -122 -225 19 -57 97 -117 134 -102 8 3 22 -7 31 -21 16 -25 21
-26 65 -20 34 5 59 2 86 -9 49 -21 66 -6 29 23 -23 18 -39 22 -86 20 -32 -1
-63 2 -69 8 -6 6 -9 30 -7 54 3 38 6 44 23 41 11 -2 34 -6 51 -9 33 -5 94 19
94 38 0 6 -6 6 -19 -1 -26 -14 -84 -13 -117 2 -23 11 -28 10 -45 -11 -11 -13
-19 -38 -19 -57 0 -40 -8 -42 -59 -10 -38 24 -71 83 -71 127 0 28 26 75 52 93
54 38 148 4 148 -53 0 -31 27 -61 54 -61 14 0 17 5 11 23 -18 57 -14 62 43 59
42 -2 52 0 52 13 0 9 -14 24 -30 33 -30 17 -30 18 -23 72 5 30 8 95 8 143 0
85 -1 90 -28 113 -38 33 -70 31 -101 -6z m84 -20 c15 -15 20 -33 20 -72 0 -79
-8 -98 -39 -98 -33 -1 -53 -16 -75 -57 -16 -32 -36 -44 -36 -23 0 22 31 166
42 195 12 32 46 75 60 75 4 0 17 -9 28 -20z"/>
<path d="M2914 3165 c-8 -21 14 -90 39 -121 19 -25 16 -44 -9 -44 -8 0 -12 -4
-9 -10 9 -15 41 -12 55 6 11 12 8 26 -18 79 -18 35 -32 70 -32 79 0 22 -19 30
-26 11z"/>
<path d="M2256 3110 c-34 -41 -64 -141 -72 -241 -6 -73 -10 -83 -40 -113 -40
-40 -52 -92 -33 -144 19 -51 99 -92 178 -92 63 0 87 11 78 33 -4 10 -26 18
-64 22 -123 13 -153 31 -153 88 0 67 57 107 153 107 l55 0 10 43 c54 212 -20
406 -112 297z m80 -35 c7 -19 14 -59 14 -90 0 -49 -2 -55 -20 -55 -29 0 -66
-41 -81 -88 -6 -23 -19 -44 -27 -47 -34 -13 11 232 53 293 23 32 44 27 61 -13z"/>
<path d="M2901 2859 c-13 -38 -14 -69 -2 -69 9 0 26 89 18 96 -3 3 -10 -9 -16
-27z"/>
<path d="M1770 2800 c0 -5 5 -10 11 -10 5 0 7 5 4 10 -3 6 -8 10 -11 10 -2 0
-4 -4 -4 -10z"/>
<path d="M1820 2759 c0 -5 5 -7 10 -4 6 3 10 8 10 11 0 2 -4 4 -10 4 -5 0 -10
-5 -10 -11z"/>
<path d="M1770 2730 c0 -5 5 -10 10 -10 6 0 10 5 10 10 0 6 -4 10 -10 10 -5 0
-10 -4 -10 -10z"/>
<path d="M2215 2690 c-3 -5 -1 -10 4 -10 6 0 11 5 11 10 0 6 -2 10 -4 10 -3 0
-8 -4 -11 -10z"/>
<path d="M2240 2670 c0 -5 7 -10 16 -10 8 0 12 5 9 10 -3 6 -10 10 -16 10 -5
0 -9 -4 -9 -10z"/>
<path d="M2576 2662 c-8 -25 8 -106 34 -171 22 -57 19 -75 -11 -66 -10 4 -19
2 -19 -4 0 -19 50 -25 68 -7 15 14 14 23 -16 113 -18 54 -32 110 -32 126 0 30
-16 37 -24 9z"/>
<path d="M1877 2644 c-4 -4 -7 -18 -7 -31 0 -28 23 -27 28 1 4 20 -11 40 -21
30z"/>
<path d="M2270 2620 c0 -5 5 -10 10 -10 6 0 10 5 10 10 0 6 -4 10 -10 10 -5 0
-10 -4 -10 -10z"/>
<path d="M2537 2603 c-11 -10 -8 -171 3 -178 6 -4 10 28 10 89 0 96 -1 102
-13 89z"/>
<path d="M1950 2491 c0 -31 84 -51 115 -27 19 14 17 15 -32 16 -28 0 -55 5
-58 10 -8 12 -25 13 -25 1z"/>
<path d="M1721 2403 c-6 -38 -15 -99 -21 -138 -5 -38 -21 -130 -35 -204 -27
-144 -30 -177 -16 -151 27 48 101 425 101 518 0 65 -17 50 -29 -25z"/>
<path d="M2847 2414 c-15 -51 -29 -304 -25 -445 l5 -157 -81 -16 c-44 -9 -110
-19 -145 -23 l-64 -6 6 266 c4 153 3 267 -2 267 -17 0 -23 -59 -28 -297 l-5
-243 -83 0 c-46 0 -87 -4 -90 -10 -10 -15 185 -12 300 5 114 17 207 42 217 58
3 6 7 69 7 141 0 72 3 201 7 287 4 100 3 163 -3 174 -10 17 -11 17 -16 -1z"/>
<path d="M2087 2355 c-10 -49 -56 -509 -57 -569 0 -13 -182 1 -285 23 -49 10
-92 17 -94 15 -9 -8 78 -37 161 -54 115 -24 247 -34 278 -22 26 10 26 11 -26
27 -9 3 -13 12 -10 22 22 77 58 516 46 563 -7 25 -7 25 -13 -5z"/>
<path d="M1844 2313 c-4 -16 -20 -52 -36 -81 -17 -29 -27 -59 -24 -67 9 -23
96 -17 96 6 0 5 -14 9 -31 9 -17 0 -29 3 -27 8 21 41 47 102 52 125 5 20 3 27
-9 27 -8 0 -18 -12 -21 -27z"/>
<path d="M2274 2284 c-10 -53 1 -172 21 -236 21 -65 12 -88 -33 -88 -19 0 -23
-3 -15 -11 19 -19 67 -6 80 22 10 21 9 37 -8 95 -13 44 -21 102 -22 161 -2 96
-11 119 -23 57z"/>
<path d="M2703 2269 c4 -24 10 -55 13 -68 6 -21 4 -22 -15 -16 -19 6 -22 4
-19 -16 4 -30 33 -47 56 -33 25 16 27 75 3 123 -31 59 -46 64 -38 10z"/>
<path d="M1830 2015 c0 -14 6 -25 13 -25 6 0 12 11 12 25 0 14 -6 25 -12 25
-7 0 -13 -11 -13 -25z"/>
<path d="M2610 1930 c0 -5 7 -10 15 -10 8 0 15 5 15 10 0 6 -7 10 -15 10 -8 0
-15 -4 -15 -10z"/>
<path d="M2332 1917 c-9 -11 -6 -16 14 -26 23 -10 25 -9 22 11 -4 26 -21 33
-36 15z"/>
<path d="M2183 1753 c9 -2 23 -2 30 0 6 3 -1 5 -18 5 -16 0 -22 -2 -12 -5z"/>
<path d="M3815 1500 c-3 -5 1 -10 9 -10 9 0 16 5 16 10 0 6 -4 10 -9 10 -6 0
-13 -4 -16 -10z"/>
<path d="M3685 1460 c-3 -5 -1 -10 4 -10 6 0 11 5 11 10 0 6 -2 10 -4 10 -3 0
-8 -4 -11 -10z"/>
<path d="M3600 1430 c0 -5 5 -10 10 -10 6 0 10 5 10 10 0 6 -4 10 -10 10 -5 0
-10 -4 -10 -10z"/>
<path d="M3030 2074 c-12 -31 -13 -144 -1 -144 4 0 11 27 14 60 4 33 10 72 13
85 8 34 -14 33 -26 -1z"/>
<path d="M3030 1886 c0 -18 26 -40 34 -27 9 14 -4 41 -20 41 -8 0 -14 -6 -14
-14z"/>
<path d="M2760 1150 c0 -5 5 -10 10 -10 6 0 10 5 10 10 0 6 -4 10 -10 10 -5 0
-10 -4 -10 -10z"/>
<path d="M2819 1149 c16 -6 28 -6 35 1 7 7 -1 10 -24 9 -33 0 -34 -1 -11 -10z"/>
<path d="M2780 1126 c0 -2 8 -10 18 -17 15 -13 16 -12 3 4 -13 16 -21 21 -21
13z"/>
<path d="M1552 930 c-8 -13 -8 -20 -2 -20 6 0 13 7 17 15 9 24 -1 27 -15 5z"/>
<path d="M1516 893 c-6 -14 -5 -15 5 -6 7 7 10 15 7 18 -3 3 -9 -2 -12 -12z"/>
<path d="M1577 894 c13 -6 -14 -44 -32 -44 -5 0 -3 5 5 10 12 7 10 9 -7 7 -21
-1 -21 -2 -6 -19 11 -12 20 -15 28 -8 6 5 15 7 19 3 4 -4 4 0 0 10 -4 12 -1
17 11 17 23 0 13 24 -11 27 -10 2 -14 0 -7 -3z"/>
<path d="M2960 4145 c0 -8 7 -15 15 -15 8 0 15 7 15 15 0 8 -7 15 -15 15 -8 0
-15 -7 -15 -15z"/>
<path d="M3020 4060 c0 -5 5 -10 10 -10 6 0 10 5 10 10 0 6 -4 10 -10 10 -5 0
-10 -4 -10 -10z"/>
<path d="M3788 2294 c-10 -3 -18 -15 -18 -26 0 -19 4 -20 63 -14 60 7 88 19
74 32 -8 9 -97 14 -119 8z"/>
<path d="M3926 2229 c-72 -8 -116 -32 -83 -45 23 -9 388 33 401 46 12 12 -212
12 -318 -1z"/>
<path d="M4130 1520 c0 -24 15 -27 24 -4 9 22 8 24 -9 24 -8 0 -15 -9 -15 -20z"/>
<path d="M3112 1450 c-36 -8 -49 -17 -39 -26 6 -7 141 14 172 27 26 10 -88 10
-133 -1z"/>
<path d="M3171 1401 c-18 -11 -4 -33 17 -27 10 2 30 7 46 11 23 5 27 8 15 16
-18 11 -60 11 -78 0z"/>
<path d="M4236 1391 c-4 -5 -2 -12 3 -15 5 -4 12 -2 15 3 4 5 2 12 -3 15 -5 4
-12 2 -15 -3z"/>
<path d="M3280 1355 c-8 -2 -32 -6 -52 -10 -29 -4 -36 -9 -31 -22 11 -29 243
-4 243 27 0 9 -121 13 -160 5z"/>
<path d="M4504 1345 c-7 -18 2 -45 14 -45 5 0 9 14 9 30 0 32 -14 40 -23 15z"/>
<path d="M4230 1250 c0 -11 7 -20 15 -20 8 0 15 9 15 20 0 11 -7 20 -15 20 -8
0 -15 -9 -15 -20z"/>
<path d="M3620 1230 c0 -24 15 -27 24 -4 9 22 8 24 -9 24 -8 0 -15 -9 -15 -20z"/>
<path d="M3933 1219 c-150 -25 -277 -110 -336 -223 -14 -28 -18 -30 -67 -27
-65 3 -142 -32 -194 -89 -47 -52 -70 -140 -37 -140 5 0 12 16 15 35 12 63 88
129 170 149 33 8 86 -10 86 -30 0 -7 5 -25 12 -41 11 -27 11 -27 19 24 10 78
47 141 115 196 89 72 147 91 279 92 103 0 113 -2 157 -28 63 -37 77 -62 49
-91 -12 -12 -21 -30 -21 -40 0 -14 5 -13 35 10 30 22 42 26 81 21 53 -6 91
-36 102 -81 11 -43 46 -43 50 0 5 55 -73 124 -140 124 -15 0 -31 12 -47 36
-32 46 -100 85 -175 101 -68 14 -79 14 -153 2z"/>
<path d="M3471 1181 c-19 -12 -6 -41 18 -41 26 0 36 17 21 35 -14 17 -20 18
-39 6z"/>
<path d="M4507 1183 c-4 -3 -7 -17 -7 -29 0 -25 36 -42 65 -30 21 8 19 27 -4
33 -11 3 -22 11 -25 19 -6 15 -18 18 -29 7z"/>
<path d="M3562 1099 c2 -6 8 -10 13 -10 5 0 11 4 13 10 2 6 -4 11 -13 11 -9 0
-15 -5 -13 -11z"/>
<path d="M3135 511 c-42 -5 -100 -20 -145 -39 -111 -46 -325 -76 -486 -68 -94
4 -124 2 -133 -8 -38 -45 99 -72 319 -63 284 12 685 69 763 109 24 12 21 47
-5 57 -33 12 -231 20 -313 12z"/>
<path d="M1534 384 c-37 -56 -150 -76 -205 -35 -24 18 -34 19 -90 11 -85 -12
-162 -36 -189 -58 -19 -16 -21 -23 -13 -48 14 -41 63 -47 247 -34 326 24 480
73 449 143 -13 27 -74 47 -142 47 -32 0 -44 -5 -57 -26z"/>
</g>
</svg>
